<svg xmlns="http://www.w3.org/2000/svg" viewBox="0 0 24 24" fill="none" stroke="currentColor" stroke-width="2" stroke-linecap="round" stroke-linejoin="round">
  <path d="M11 17l2 2a1 1 0 001-3"/>
  <path d="M14 14l2.5 2.5a1 1 0 003-3l-3.88-3.88a3 3 0 00-4.24 0l-.88.88a1 1 0 11-3-3l2.81-2.81a5.79 5.79 0 017.06-.87"/>
  <path d="m16.26 18.83 2.12-2.12a1 1 0 10-3-3l-2.12 2.12"/>
  <path d="M17.09 9.79c-.5.3-1.06.51-1.64.6L12 11.3l-1 .18-3.43.59A3 3 0 005.3 13.5l1.93 5.87a3 3 0 002.85 2.07h6.84a3 3 0 002.85-2.07l1.93-5.87a3 3 0 00-2.11-3.71z"/>
  <path d="M2 12h4"/>
  <path d="M18 12h4"/>
</svg>
